# xmcd
# 
# Track frame offsets:
#     150
#     15605
#     33615
#     56005
#     74582
#     90952
#     109235
#     128110
#     145942
#     164212
#     183645
#     198687
#     215507
#     232967
# 
# Disc length: 3342
# 
# Revision: 4
# Processed by: cddbd v1.5.2PL0 Copyright (c) Steve Scherf et al.
# Submitted via: fre:ac v1.0.31
# 
DISCID=d50d0c0e
DTITLE=Carrie Underwood - Blown Away
DYEAR=2012
DGENRE=Country
TTITLE0=Good Girl
TTITLE1=Blown Away
TTITLE2=Two Black Cadillacs
TTITLE3=See You Again
TTITLE4=Do You Think About Me
TTITLE5=Forever Changed
TTITLE6=Nobody Ever Told You
TTITLE7=One Way Ticket
TTITLE8=Thank God For Hometowns
TTITLE9=Good In Goodbye
TTITLE10=Leave Love Alone
TTITLE11=Cupid's Got A Shotgun
TTITLE12=Wine After Whiskey
TTITLE13=Who Are You
EXTD=
EXTT0=
EXTT1=
EXTT2=
EXTT3=
EXTT4=
EXTT5=
EXTT6=
EXTT7=
EXTT8=
EXTT9=
EXTT10=
EXTT11=
EXTT12=
EXTT13=
PLAYORDER=
